<?xml version="1.0" standalone="no"?>
<!DOCTYPE svg PUBLIC "-//W3C//DTD SVG 20010904//EN"
 "http://www.w3.org/TR/2001/REC-SVG-20010904/DTD/svg10.dtd">
<svg version="1.0" xmlns="http://www.w3.org/2000/svg"
 width="312.000000pt" height="80.000000pt" viewBox="0 0 312.000000 80.000000"
 preserveAspectRatio="xMidYMid meet">
<metadata>
Created by potrace 1.16, written by Peter Selinger 2001-2019
</metadata>
<g transform="translate(0.000000,80.000000) scale(0.100000,-0.100000)"
fill="#000000" stroke="none">
<path d="M1977 723 c-4 -3 -7 -78 -7 -165 l0 -158 40 0 40 0 0 165 0 165 -33
0 c-19 0 -37 -3 -40 -7z"/>
<path d="M110 561 l0 -161 78 0 c138 1 202 50 202 158 0 107 -51 150 -190 159
l-90 6 0 -162z m175 54 c52 -51 17 -135 -56 -135 l-39 0 0 80 0 80 35 0 c25 0
44 -8 60 -25z"/>
<path d="M1690 560 l0 -160 40 0 40 0 0 55 0 55 40 0 c47 0 95 22 110 49 17
34 12 88 -12 116 -26 30 -78 44 -160 45 l-58 0 0 -160z"/>
<path d="M760 680 c0 -20 -5 -30 -15 -30 -10 0 -15 -11 -15 -35 0 -24 5 -35
15 -35 11 0 15 -13 15 -55 0 -89 29 -125 100 -125 27 0 30 3 30 34 0 28 -4 35
-25 40 -22 6 -25 11 -25 56 0 47 2 50 25 50 22 0 25 4 25 35 0 31 -3 35 -25
35 -21 0 -25 5 -25 30 0 28 -2 30 -40 30 -38 0 -40 -2 -40 -30z"/>
<path d="M2740 630 c0 -39 -1 -40 -35 -40 -33 0 -35 -2 -35 -35 0 -33 2 -35
35 -35 34 0 35 -1 35 -40 l0 -40 40 0 40 0 0 40 c0 39 1 40 35 40 33 0 35 2
35 35 0 33 -2 35 -35 35 -34 0 -35 1 -35 40 l0 40 -40 0 -40 0 0 -40z"/>
<path d="M467 629 c-54 -42 -58 -150 -6 -201 31 -32 83 -38 115 -13 25 19 34
19 34 0 0 -11 11 -15 40 -15 l40 0 0 125 0 125 -40 0 c-29 0 -40 -4 -40 -15 0
-8 -4 -15 -9 -15 -5 0 -14 7 -21 15 -18 22 -82 19 -113 -6z"/>
<path d="M930 524 l0 -125 43 3 42 3 3 123 3 122 -45 0 -46 0 0 -126z"/>
<path d="M1070 526 l0 -126 45 0 44 0 0 80 c0 44 3 84 6 90 8 13 62 13 71 -1
3 -6 6 -46 7 -90 l0 -79 43 0 44 0 0 80 c0 88 -16 142 -48 159 -29 15 -75 14
-98 -4 -24 -18 -35 -19 -31 -2 1 8 -13 13 -40 15 l-43 3 0 -125z"/>
<path d="M1414 635 c-32 -22 -47 -69 -42 -127 4 -42 11 -57 37 -80 36 -32 79
-36 116 -12 24 16 25 16 25 -9 0 -48 -51 -74 -84 -42 -8 8 -31 15 -50 15 -41
0 -48 -20 -18 -56 26 -32 55 -44 111 -44 42 0 56 5 83 29 l33 29 3 156 3 156
-40 0 c-30 0 -41 -4 -41 -16 0 -14 -2 -14 -22 0 -28 20 -87 21 -114 1z"/>
<path d="M2110 570 c0 -146 51 -201 140 -155 27 14 30 14 30 0 0 -11 11 -15
40 -15 l40 0 0 125 0 125 -40 0 -40 0 0 -84 c0 -88 -4 -96 -50 -96 -29 0 -40
31 -40 109 l0 71 -40 0 -40 0 0 -80z"/>
<path d="M2445 625 c-32 -32 -33 -79 -2 -99 12 -8 41 -19 65 -26 25 -6 42 -17
42 -25 0 -17 -45 -21 -55 -5 -6 10 -85 14 -85 4 0 -17 24 -46 50 -59 86 -45
190 11 161 87 -8 20 -23 31 -67 45 -65 20 -83 43 -35 43 17 0 31 -4 31 -10 0
-5 16 -10 35 -10 43 0 46 20 10 55 -35 36 -115 36 -150 0z"/>
</g>
</svg>
